<svg id="visual" viewBox="0 0 1000 4000" width="1000" height="4000" xmlns="http://www.w3.org/2000/svg" xmlns:xlink="http://www.w3.org/1999/xlink" version="1.1"><path d="M0 1121L13.8 1094.3C27.7 1067.7 55.3 1014.3 83.2 921C111 827.7 139 694.3 166.8 667.7C194.7 641 222.3 721 250 681C277.7 641 305.3 481 333.2 421C361 361 389 401 416.8 447.7C444.7 494.3 472.3 547.7 500 534.3C527.7 521 555.3 441 583.2 447.7C611 454.3 639 547.7 666.8 594.3C694.7 641 722.3 641 750 667.7C777.7 694.3 805.3 747.7 833.2 787.7C861 827.7 889 854.3 916.8 847.7C944.7 841 972.3 801 986.2 781L1000 761L1000 0L986.2 0C972.3 0 944.7 0 916.8 0C889 0 861 0 833.2 0C805.3 0 777.7 0 750 0C722.3 0 694.7 0 666.8 0C639 0 611 0 583.2 0C555.3 0 527.7 0 500 0C472.3 0 444.7 0 416.8 0C389 0 361 0 333.2 0C305.3 0 277.7 0 250 0C222.3 0 194.7 0 166.8 0C139 0 111 0 83.2 0C55.3 0 27.7 0 13.8 0L0 0Z" fill="#36b796"></path><path d="M0 2641L13.8 2541C27.7 2441 55.3 2241 83.2 2041C111 1841 139 1641 166.8 1554.3C194.7 1467.7 222.3 1494.3 250 1447.7C277.7 1401 305.3 1281 333.2 1321C361 1361 389 1561 416.8 1667.7C444.7 1774.3 472.3 1787.7 500 1834.3C527.7 1881 555.3 1961 583.2 2081C611 2201 639 2361 666.8 2294.3C694.7 2227.7 722.3 1934.3 750 1854.3C777.7 1774.3 805.3 1907.7 833.2 2014.3C861 2121 889 2201 916.8 2187.7C944.7 2174.3 972.3 2067.7 986.2 2014.3L1000 1961L1000 759L986.2 779C972.3 799 944.7 839 916.8 845.7C889 852.3 861 825.7 833.2 785.7C805.3 745.7 777.7 692.3 750 665.7C722.3 639 694.7 639 666.8 592.3C639 545.7 611 452.3 583.2 445.7C555.3 439 527.7 519 500 532.3C472.3 545.7 444.7 492.3 416.8 445.7C389 399 361 359 333.2 419C305.3 479 277.7 639 250 679C222.3 719 194.7 639 166.8 665.7C139 692.3 111 825.7 83.2 919C55.3 1012.3 27.7 1065.7 13.8 1092.3L0 1119Z" fill="#008a6b"></path><path d="M0 2961L13.8 2914.3C27.7 2867.7 55.3 2774.3 83.2 2561C111 2347.7 139 2014.3 166.8 1894.3C194.7 1774.3 222.3 1867.7 250 1887.7C277.7 1907.7 305.3 1854.3 333.2 1881C361 1907.7 389 2014.3 416.8 2101C444.7 2187.7 472.3 2254.3 500 2347.7C527.7 2441 555.3 2561 583.2 2661C611 2761 639 2841 666.8 2741C694.7 2641 722.3 2361 750 2301C777.7 2241 805.3 2401 833.2 2541C861 2681 889 2801 916.8 2774.3C944.7 2747.7 972.3 2574.3 986.2 2487.7L1000 2401L1000 1959L986.2 2012.3C972.3 2065.7 944.7 2172.3 916.8 2185.7C889 2199 861 2119 833.2 2012.3C805.3 1905.7 777.7 1772.3 750 1852.3C722.3 1932.3 694.7 2225.7 666.8 2292.3C639 2359 611 2199 583.2 2079C555.3 1959 527.7 1879 500 1832.3C472.3 1785.7 444.7 1772.3 416.8 1665.7C389 1559 361 1359 333.2 1319C305.3 1279 277.7 1399 250 1445.7C222.3 1492.3 194.7 1465.7 166.8 1552.3C139 1639 111 1839 83.2 2039C55.3 2239 27.7 2439 13.8 2539L0 2639Z" fill="#006c55"></path><path d="M0 3401L13.8 3361C27.7 3321 55.3 3241 83.2 3054.3C111 2867.7 139 2574.3 166.8 2487.7C194.7 2401 222.3 2521 250 2527.7C277.7 2534.3 305.3 2427.7 333.2 2474.3C361 2521 389 2721 416.8 2801C444.7 2881 472.3 2841 500 2847.7C527.7 2854.3 555.3 2907.7 583.2 2974.3C611 3041 639 3121 666.8 3047.7C694.7 2974.3 722.3 2747.7 750 2707.7C777.7 2667.7 805.3 2814.3 833.2 2954.3C861 3094.3 889 3227.7 916.8 3274.3C944.7 3321 972.3 3281 986.2 3261L1000 3241L1000 2399L986.2 2485.7C972.3 2572.3 944.7 2745.7 916.8 2772.3C889 2799 861 2679 833.2 2539C805.3 2399 777.7 2239 750 2299C722.3 2359 694.7 2639 666.8 2739C639 2839 611 2759 583.2 2659C555.3 2559 527.7 2439 500 2345.7C472.3 2252.3 444.7 2185.7 416.8 2099C389 2012.3 361 1905.7 333.2 1879C305.3 1852.3 277.7 1905.7 250 1885.7C222.3 1865.7 194.7 1772.3 166.8 1892.3C139 2012.3 111 2345.7 83.2 2559C55.3 2772.3 27.7 2865.7 13.8 2912.3L0 2959Z" fill="#008a6b"></path><path d="M0 4001L13.8 4001C27.7 4001 55.3 4001 83.2 4001C111 4001 139 4001 166.8 4001C194.7 4001 222.3 4001 250 4001C277.7 4001 305.3 4001 333.2 4001C361 4001 389 4001 416.8 4001C444.7 4001 472.3 4001 500 4001C527.7 4001 555.3 4001 583.2 4001C611 4001 639 4001 666.8 4001C694.7 4001 722.3 4001 750 4001C777.7 4001 805.3 4001 833.2 4001C861 4001 889 4001 916.8 4001C944.7 4001 972.3 4001 986.2 4001L1000 4001L1000 3239L986.2 3259C972.3 3279 944.7 3319 916.8 3272.3C889 3225.7 861 3092.3 833.2 2952.3C805.3 2812.3 777.7 2665.7 750 2705.7C722.3 2745.7 694.7 2972.3 666.8 3045.7C639 3119 611 3039 583.2 2972.3C555.3 2905.7 527.7 2852.3 500 2845.7C472.3 2839 444.7 2879 416.8 2799C389 2719 361 2519 333.2 2472.3C305.3 2425.7 277.7 2532.3 250 2525.7C222.3 2519 194.7 2399 166.8 2485.7C139 2572.3 111 2865.7 83.2 3052.3C55.3 3239 27.7 3319 13.8 3359L0 3399Z" fill="#36b796"></path></svg>